<?xml version="1.0" encoding="iso-8859-1"?>
<!-- Generator: Adobe Illustrator 19.0.0, SVG Export Plug-In . SVG Version: 6.00 Build 0)  -->
<svg version="1.1" id="Layer_1" xmlns="http://www.w3.org/2000/svg" xmlns:xlink="http://www.w3.org/1999/xlink" x="0px" y="0px"
	 viewBox="0 0 481.8 481.8" style="enable-background:new 0 0 481.8 481.8;" xml:space="preserve">
<circle style="fill:#64798A;" cx="240.9" cy="240.9" r="240.9"/>
<circle style="fill:#FFFFFF;" cx="240.9" cy="240.9" r="196.7"/>
<path style="fill:#FCD462;" d="M43.9,240.9c0,54.2,22.3,103.6,57.8,139.1l2.4-2.4l62.6-62.6c-19.3-18.7-30.7-45.2-30.7-74.1H43.9z"
	/>
<path style="fill:#D15241;" d="M427,240.9h-81.3c0,28.9-11.4,55.4-30.7,74.1l62.6,62.6l3,2.4c35-35.5,57.3-84.9,57.3-139.1H427z"/>
<path style="fill:#F6C358;" d="M113.6,114c0.1-0.1,0.2-0.1,0.2-0.2l-12-12l0,0l0,0c-35.6,35.5-57.9,84.9-57.9,139.1h10.8H136
	c0-28.9,11.4-55.4,30.7-74.1l-53-53C113.7,113.9,113.6,114,113.6,114z"/>
<path style="fill:#3EA69B;" d="M355,102.8c4.5,3.5,8.8,7.1,12.9,11l12-12c-35.4-35.6-84.8-57.9-139-57.9v19.9c1.4,0,2.7,0,4,0
	c-1.3,0-2.7,0-4,0v72.3c28.9,0,55.4,11.4,74.1,30.7l53-53C363.9,110,359.5,106.3,355,102.8z"/>
<path style="fill:#E56353;" d="M380,101.8l-12,12c2.2,2,4.3,4.1,6.4,6.2c-2.1-2.1-4.3-4.2-6.4-6.2l0,0l-53,53
	c19.3,19.3,30.7,45.2,30.7,74.1l0,0H427h10.9C437.9,186.7,415.6,137.3,380,101.8z"/>
<path style="fill:#44C4A1;" d="M240.9,63.8V43.9c-54.2,0-103.6,22.3-139.1,57.8l0,0l12,12l0,0l53,53c19.3-19.3,45.2-30.7,74.1-30.7
	V63.8L240.9,63.8z"/>
<path style="fill:#F6C358;" d="M54.8,240.9H43.9c0,54.2,22.3,103.6,57.8,139.1l2.4-2.4c-30.7-33.1-50-77.7-50-127.1
	C54.2,247.5,54.2,243.9,54.8,240.9z"/>
<path style="fill:#CE412D;" d="M437.9,240.9h-10.8c0,3,0.6,6.6,0.6,9.6c0,49.4-19.3,94-50,127.1l3,2.4
	C415.6,344.5,437.9,295.1,437.9,240.9z"/>
<path style="fill:#DC8744;" d="M113.8,113.8l-12-12c-35.6,35.5-57.9,84.9-57.9,139.1h10.8C57.8,190.9,79.5,145.7,113.8,113.8z"/>
<path style="fill:#31978C;" d="M368,113.8l12-12c-35.5-35.6-84.9-57.9-139.1-57.9v19.9C290.3,63.8,334.9,83.1,368,113.8z"/>
<path style="fill:#D15241;" d="M427,240.9h10.9c0-54.2-22.3-103.6-57.8-139.1l-12,12C402.9,145.7,424.6,190.9,427,240.9z"/>
<path style="fill:#3EA69B;" d="M240.9,63.8L240.9,63.8V43.9l0,0c-54.2,0-103.6,22.3-139.1,57.8l12,12
	C146.9,83.1,191.5,63.8,240.9,63.8z"/>
<path style="fill:#3A556A;" d="M240.9,95.7c0,0-44.6,112-44.6,145.2c0,24.7,19.9,44.6,44.6,44.6s44.6-19.9,44.6-44.6
	C285.5,205.4,240.9,95.7,240.9,95.7z M240.9,257.2c-9,0-16.3-7.2-16.3-16.3c0-9,7.2-16.3,16.3-16.3c9,0,16.3,7.2,16.3,16.3
	C257.2,249.9,249.9,257.2,240.9,257.2z"/>
<g>
</g>
<g>
</g>
<g>
</g>
<g>
</g>
<g>
</g>
<g>
</g>
<g>
</g>
<g>
</g>
<g>
</g>
<g>
</g>
<g>
</g>
<g>
</g>
<g>
</g>
<g>
</g>
<g>
</g>
</svg>
