<?xml version="1.0" encoding="UTF-8"?>
<svg width="819px" height="183px" viewBox="0 0 819 183" version="1.1" xmlns="http://www.w3.org/2000/svg" xmlns:xlink="http://www.w3.org/1999/xlink">
    <!-- Generator: Sketch 51.1 (57501) - http://www.bohemiancoding.com/sketch -->
    <title>dashboard</title>
    <desc>Created with Sketch.</desc>
    <defs></defs>
    <g id="Page-1" stroke="none" stroke-width="1" fill="none" fill-rule="evenodd">
        <g id="dashboard">
            <ellipse id="Oval" fill="#64798A" fill-rule="nonzero" cx="91" cy="91.5" rx="91" ry="91.5"></ellipse>
            <ellipse id="Oval" fill="#FFFFFF" fill-rule="nonzero" cx="91" cy="92" rx="74" ry="75"></ellipse>
            <path d="M17,91 C17,111.65133 25.3534202,130.47376 38.6514658,144 L39.5504886,143.08555 L63,119.233645 C55.7703583,112.108555 51.5,102.011503 51.5,91 L17,91 Z" id="Shape" fill="#FCD462" fill-rule="nonzero"></path>
            <path d="M160.92026,91 L130.490643,91 C130.490643,102.011503 126.223759,112.108555 119,119.233645 L142.430431,143.08555 L143.553295,144 C156.653377,130.47376 165,111.65133 165,91 L160.92026,91 Z" id="Shape" fill="#D15241" fill-rule="nonzero"></path>
            <path d="M43.1091205,42.6484543 C43.1465798,42.6103523 43.1840391,42.6103523 43.1840391,42.5722502 L38.6889251,38 C25.3534202,51.5262401 17,70.34867 17,91 L21.0456026,91 L51.5,91 C51.5,79.9884975 55.7703583,69.891445 63,62.7663551 L43.1465798,42.5722502 C43.1465798,42.6103523 43.1091205,42.6484543 43.1091205,42.6484543 Z" id="Shape" fill="#F6C358" fill-rule="nonzero"></path>
            <path d="M134.505755,39.5248169 C136.221583,40.8633035 137.861151,42.2400325 139.42446,43.731489 L144,39.1423922 C130.502158,25.5280716 111.666187,17 91,17 L91,24.6102522 C91.5338129,24.6102522 92.0294964,24.6102522 92.5251799,24.6102522 C92.0294964,24.6102522 91.4956835,24.6102522 91,24.6102522 L91,52.2595606 C102.019424,52.2595606 112.123741,56.6192026 119.253957,64 L139.46259,43.731489 C137.899281,42.278275 136.221583,40.8633035 134.505755,39.5248169 Z" id="Shape" fill="#3EA69B" fill-rule="nonzero"></path>
            <path d="M143.328723,38 L138.837266,42.5722502 C139.6607,43.3342919 140.446705,44.1344357 141.23271,44.9345794 C140.446705,44.1344357 139.623271,43.3342919 138.837266,42.5722502 L119,62.7663551 C126.223759,70.1200575 130.490643,79.9884975 130.490643,91 L160.92026,91 L165,91 C165,70.34867 156.653377,51.5262401 143.328723,38 Z" id="Shape" fill="#E56353" fill-rule="nonzero"></path>
            <path d="M91,24.6164495 L91,17 C70.34867,17 51.5262401,25.5350163 38,39.1221498 L42.5722502,43.7149837 L62.7663551,64 C70.1200575,56.6131922 79.9884975,52.25 91,52.25 L91,24.6164495 Z" id="Shape" fill="#44C4A1" fill-rule="nonzero"></path>
            <path d="M21.1644518,91 L17,91 C17,111.65133 25.5199336,130.47376 39.0830565,144 L40,143.08555 C28.2707641,130.47376 20.89701,113.48023 20.89701,94.6578001 C20.9352159,93.5147376 20.9352159,92.1430625 21.1644518,91 Z" id="Shape" fill="#F6C358" fill-rule="nonzero"></path>
            <path d="M166,91 L161.873754,91 C161.873754,92.1430625 162.10299,93.5147376 162.10299,94.6578001 C162.10299,113.48023 154.729236,130.47376 143,143.08555 L144.146179,144 C157.480066,130.47376 166,111.65133 166,91 Z" id="Shape" fill="#CE412D" fill-rule="nonzero"></path>
            <path d="M43,42.5722502 L38.5364807,38 C25.2947067,51.5262401 17,70.34867 17,91 L21.0171674,91 C22.1702432,71.9489576 30.241774,54.7268152 43,42.5722502 Z" id="Shape" fill="#DC8744" fill-rule="nonzero"></path>
            <path d="M139.42775,44 L144,39.3648069 C130.47376,25.6137339 111.65133,17 91,17 L91,24.6866953 C109.82243,24.6866953 126.81596,32.1416309 139.42775,44 Z" id="Shape" fill="#31978C" fill-rule="nonzero"></path>
            <path d="M160.939828,91 L165,91 C165,70.34867 156.69341,51.5262401 143.469914,38 L139,42.5722502 C151.962751,54.7268152 160.045845,71.9489576 160.939828,91 Z" id="Shape" fill="#D15241" fill-rule="nonzero"></path>
            <path d="M91,24.6977077 L91,17 C70.34867,17 51.5262401,25.6260745 38,39.3581662 L42.5722502,44 C55.1840403,32.1633238 72.1775701,24.6977077 91,24.6977077 Z" id="Shape" fill="#3EA69B" fill-rule="nonzero"></path>
            <path d="M91,36 C91,36 74,78.4868282 74,91.081138 C74,100.451001 81.5852018,108 91,108 C100.414798,108 108,100.451001 108,91.081138 C108,77.6143309 91,36 91,36 Z M91,97.2644889 C87.5695067,97.2644889 84.7869955,94.5331928 84.7869955,91.081138 C84.7869955,87.6670179 87.5313901,84.8977871 91,84.8977871 C94.4304933,84.8977871 97.2130045,87.6290832 97.2130045,91.081138 C97.2130045,94.4952582 94.4304933,97.2644889 91,97.2644889 Z" id="Shape" fill="#3A556A" fill-rule="nonzero"></path>
            <text id="DASHPAD" font-family="Helvetica-Bold, Helvetica" font-size="120" font-weight="bold">
                <tspan x="239" y="136" fill="#000000">DASH</tspan>
                <tspan x="579.019531" y="136" fill="#4A90E2">PAD</tspan>
            </text>
        </g>
    </g>
</svg>