<?xml version="1.0" encoding="iso-8859-1"?>
<!-- Generator: Adobe Illustrator 19.0.0, SVG Export Plug-In . SVG Version: 6.00 Build 0)  -->
<svg version="1.1" id="Layer_1" xmlns="http://www.w3.org/2000/svg" xmlns:xlink="http://www.w3.org/1999/xlink" x="0px" y="0px"
	 viewBox="0 0 225.603 225.603" style="enable-background:new 0 0 225.603 225.603;" xml:space="preserve">
<g>
	<g>
		<g>
			<g id="XMLID_32_">
				<g>
					<path style="fill:#FEDE94;" d="M177.53,76.953c0.631,1.742-3.604,9.161-15.379,13.606c-11.774,4.445-19.824,1.742-20.485-0.03
						c-0.24-0.601,0.18-2.493,2.313-4.986c2.853-3.424,7.629-6.548,13.036-8.62C168.789,72.478,176.869,75.211,177.53,76.953z"/>
					<path style="fill:#FEDE94;" d="M84.177,85.544c2.103,2.493,2.523,4.385,2.313,4.986c-0.661,1.772-8.741,4.475-20.485,0.03
						c-5.437-2.042-10.182-5.196-13.066-8.59c-2.103-2.523-2.523-4.415-2.313-5.016c0.24-0.601,1.802-1.742,5.016-2.223
						c1.021-0.15,2.073-0.24,3.184-0.24c3.785,0,8.11,0.841,12.285,2.433C76.548,78.996,81.293,82.119,84.177,85.544z"/>
					<path style="fill:#2D213F;" d="M149.866,108.371c-10.843,0-19.494-4.385-22.497-12.405c-2.403-6.368-0.601-13.787,4.956-20.365
						c4.566-5.407,11.414-10.032,19.313-13.036c18.352-6.968,35.623-3.094,40.159,8.981c4.535,12.045-5.887,26.402-24.239,33.37
						C161.37,107.26,155.333,108.371,149.866,108.371z M162.151,90.56c11.774-4.445,16.009-11.864,15.379-13.606
						c-0.661-1.742-8.741-4.475-20.515-0.03c-5.407,2.073-10.182,5.196-13.036,8.62c-2.133,2.493-2.553,4.385-2.313,4.986
						C142.327,92.302,150.377,95.005,162.151,90.56z"/>
					<path style="fill:#2D213F;" d="M131.094,137.657c2.343,2.343,2.343,6.157,0,8.47c-2.313,2.343-6.097,2.343-8.44,0
						c-2.313-2.313-2.313-6.127,0-8.47C124.996,135.314,128.781,135.314,131.094,137.657z"/>
					<path style="fill:#2D213F;" d="M73.995,195.386c11.174,9.311,25.681,14.868,38.807,14.868s27.633-5.557,38.807-14.868
						c24.42-20.305,59.352-92.722,42.952-138.347c-9.912-27.663-37.425-41.69-81.759-41.69s-71.847,14.027-81.789,41.69
						C14.643,102.664,49.575,175.082,73.995,195.386z M208.948,51.843c18.803,52.353-19.644,132.1-47.608,155.378
						c-13.817,11.504-31.959,18.382-48.539,18.382s-34.722-6.878-48.569-18.382C36.299,183.943-2.148,104.196,16.655,51.843
						C25.125,28.204,48.704,0,112.802,0S200.448,28.204,208.948,51.843z"/>
					<path style="fill:#2D213F;" d="M101.898,137.657c2.313-2.343,6.097-2.343,8.44,0c2.313,2.343,2.313,6.157,0,8.47
						c-2.343,2.343-6.127,2.343-8.44,0C99.556,143.814,99.556,139.999,101.898,137.657z"/>
					<path style="fill:#2D213F;" d="M76.518,62.566c7.87,3.004,14.748,7.629,19.313,13.036c5.527,6.578,7.329,13.997,4.956,20.365
						c-3.034,8.02-11.654,12.405-22.527,12.405c-5.467,0-11.504-1.111-17.661-3.454c-7.9-2.974-14.748-7.629-19.313-13.036
						c-5.527-6.578-7.329-13.997-4.956-20.335c2.403-6.398,8.62-10.753,17.091-12.015C60.418,58.481,68.618,59.592,76.518,62.566z
						 M86.49,90.53c0.21-0.601-0.21-2.493-2.313-4.986c-2.883-3.424-7.629-6.548-13.066-8.62c-4.175-1.592-8.5-2.433-12.285-2.433
						c-1.111,0-2.163,0.09-3.184,0.24c-3.214,0.481-4.776,1.622-5.016,2.223c-0.21,0.601,0.21,2.493,2.313,5.016
						c2.883,3.394,7.629,6.548,13.066,8.59C77.749,95.005,85.829,92.302,86.49,90.53z"/>
					<path style="fill:#EAEEEF;" d="M122.654,146.127c2.343,2.343,6.127,2.343,8.44,0c2.343-2.313,2.343-6.127,0-8.47
						c-2.313-2.343-6.097-2.343-8.44,0C120.341,139.999,120.341,143.814,122.654,146.127z M101.898,146.127
						c2.313,2.343,6.097,2.343,8.44,0c2.313-2.313,2.313-6.127,0-8.47c-2.343-2.343-6.127-2.343-8.44,0
						C99.556,139.999,99.556,143.814,101.898,146.127z M127.369,95.966c3.004,8.02,11.654,12.405,22.497,12.405
						c5.467,0,11.504-1.111,17.691-3.454c18.352-6.968,28.775-21.326,24.239-33.37c-4.535-12.075-21.806-15.949-40.159-8.981
						c-7.9,3.004-14.748,7.629-19.313,13.036C126.769,82.179,124.966,89.598,127.369,95.966z M73.995,195.386
						c-24.42-20.305-59.352-92.722-42.982-138.347c9.942-27.663,37.455-41.69,81.789-41.69s71.847,14.027,81.759,41.69
						c16.4,45.625-18.532,118.043-42.952,138.347c-11.174,9.311-25.681,14.868-38.807,14.868S85.168,204.698,73.995,195.386z
						 M36.329,71.547c-2.373,6.338-0.571,13.757,4.956,20.335c4.566,5.407,11.414,10.062,19.313,13.036
						c6.157,2.343,12.195,3.454,17.661,3.454c10.873,0,19.494-4.385,22.527-12.405c2.373-6.368,0.571-13.787-4.956-20.365
						c-4.566-5.407-11.444-10.032-19.313-13.036c-7.9-2.974-16.099-4.085-23.098-3.034C44.949,60.794,38.732,65.149,36.329,71.547z"
						/>
				</g>
			</g>
		</g>
		<path style="fill:#C5CBCF;" d="M163.731,59.505c13.384-1.718,24.552,2.685,28.066,12.042c3.013,8.002-0.604,17.016-8.735,24.215
			c3.31,11.228,5.31,24.17,5.632,39.095c9.522-26.129,13.979-55.249,5.866-77.818c-9.912-27.663-37.425-41.69-81.759-41.69
			c-22.086,0-39.99,3.487-53.636,10.399C89.091,23.768,135.326,26.97,163.731,59.505z"/>
	</g>
</g>
<g>
</g>
<g>
</g>
<g>
</g>
<g>
</g>
<g>
</g>
<g>
</g>
<g>
</g>
<g>
</g>
<g>
</g>
<g>
</g>
<g>
</g>
<g>
</g>
<g>
</g>
<g>
</g>
<g>
</g>
</svg>
